<mxfile host="app.diagrams.net" modified="2021-08-16T17:09:02.412Z" agent="5.0 (Macintosh; Intel Mac OS X 10_15_5) AppleWebKit/537.36 (KHTML, like Gecko) Chrome/92.0.4515.131 Safari/537.36" etag="uHQQF4yb1jE31CSkOc7z" version="14.9.6" type="github">
  <diagram id="eNwvmtfnUTwQ2Sefj3YD" name="Page-1">
    <mxGraphModel dx="2253" dy="1906" grid="1" gridSize="10" guides="1" tooltips="1" connect="1" arrows="1" fold="1" page="1" pageScale="1" pageWidth="827" pageHeight="1169" math="0" shadow="0">
      <root>
        <mxCell id="0" />
        <mxCell id="1" parent="0" />
        <mxCell id="HOZdnpOeCfYpGoQ59FNz-10" value="&lt;p style=&quot;margin: 0px ; margin-top: 4px ; text-align: center&quot;&gt;&lt;b&gt;AdaptionController&lt;/b&gt;&lt;/p&gt;&lt;hr size=&quot;1&quot;&gt;&lt;p style=&quot;margin: 0px ; margin-left: 4px&quot;&gt;+ beforeHandlers: TransHandler[]&lt;/p&gt;&lt;p style=&quot;margin: 0px ; margin-left: 4px&quot;&gt;+ afterHandlers:&amp;nbsp;TransHandler[]&lt;/p&gt;&lt;hr size=&quot;1&quot;&gt;&lt;p style=&quot;margin: 0px 0px 0px 4px&quot;&gt;+ transBeforeMixer(adaptionRequest):&amp;nbsp;adaptionRequest&lt;/p&gt;&lt;p style=&quot;margin: 0px 0px 0px 4px&quot;&gt;+ callMixer(MixerRequest): MixerResponse&lt;/p&gt;&lt;p style=&quot;margin: 0px 0px 0px 4px&quot;&gt;+ transAfterMixer(adaptionResponse): adaptionResponse&lt;/p&gt;" style="verticalAlign=top;align=left;overflow=fill;fontSize=12;fontFamily=Helvetica;html=1;" parent="1" vertex="1">
          <mxGeometry x="-77.5" y="150" width="325" height="163.75" as="geometry" />
        </mxCell>
        <mxCell id="HOZdnpOeCfYpGoQ59FNz-11" value="&lt;p style=&quot;margin: 0px ; margin-top: 4px ; text-align: center&quot;&gt;&lt;b&gt;SystemController&lt;/b&gt;&lt;/p&gt;&lt;hr size=&quot;1&quot;&gt;&lt;p style=&quot;margin: 0px ; margin-left: 4px&quot;&gt;+ userID: int&lt;/p&gt;&lt;p style=&quot;margin: 0px ; margin-left: 4px&quot;&gt;+ userName: string&lt;/p&gt;&lt;p style=&quot;margin: 0px ; margin-left: 4px&quot;&gt;+ session: string&lt;/p&gt;&lt;p style=&quot;margin: 0px ; margin-left: 4px&quot;&gt;+ timestamp: int&lt;br&gt;&lt;/p&gt;&lt;hr size=&quot;1&quot;&gt;&lt;p style=&quot;margin: 0px ; margin-left: 4px&quot;&gt;+ checkPermission(string): bool&lt;/p&gt;&lt;p style=&quot;margin: 0px ; margin-left: 4px&quot;&gt;+ checkParameter(map): bool&lt;/p&gt;&lt;p style=&quot;margin: 0px ; margin-left: 4px&quot;&gt;+ serveErrMsg(int, string): void&lt;/p&gt;" style="verticalAlign=top;align=left;overflow=fill;fontSize=12;fontFamily=Helvetica;html=1;" parent="1" vertex="1">
          <mxGeometry x="-46.25" y="-70" width="260" height="150" as="geometry" />
        </mxCell>
        <mxCell id="HOZdnpOeCfYpGoQ59FNz-12" value="Extends" style="endArrow=block;endSize=16;endFill=0;html=1;entryX=0.5;entryY=1;entryDx=0;entryDy=0;" parent="1" source="HOZdnpOeCfYpGoQ59FNz-10" target="HOZdnpOeCfYpGoQ59FNz-11" edge="1">
          <mxGeometry width="160" relative="1" as="geometry">
            <mxPoint x="458.75" y="220" as="sourcePoint" />
            <mxPoint x="458.75" y="340" as="targetPoint" />
          </mxGeometry>
        </mxCell>
        <mxCell id="NR1aC9e4uaMkveNaqMeH-2" value="&lt;p style=&quot;margin: 0px ; margin-top: 4px ; text-align: center&quot;&gt;&lt;b&gt;TransHandler&lt;/b&gt;&lt;/p&gt;&lt;hr size=&quot;1&quot;&gt;&lt;p style=&quot;margin: 0px ; margin-left: 4px&quot;&gt;&lt;br&gt;&lt;/p&gt;&lt;hr size=&quot;1&quot;&gt;&lt;p style=&quot;margin: 0px 0px 0px 4px&quot;&gt;+ transParamter(paramter): paramter&lt;/p&gt;" style="verticalAlign=top;align=left;overflow=fill;fontSize=12;fontFamily=Helvetica;html=1;" parent="1" vertex="1">
          <mxGeometry x="-77.5" y="370" width="325" height="163.75" as="geometry" />
        </mxCell>
        <mxCell id="NR1aC9e4uaMkveNaqMeH-4" value="" style="endArrow=open;endFill=1;endSize=12;html=1;exitX=0.5;exitY=1;exitDx=0;exitDy=0;entryX=0.5;entryY=0;entryDx=0;entryDy=0;" parent="1" source="HOZdnpOeCfYpGoQ59FNz-10" target="NR1aC9e4uaMkveNaqMeH-2" edge="1">
          <mxGeometry width="160" relative="1" as="geometry">
            <mxPoint x="346.25" y="150.005" as="sourcePoint" />
            <mxPoint x="268.75" y="240.005" as="targetPoint" />
          </mxGeometry>
        </mxCell>
        <mxCell id="NR1aC9e4uaMkveNaqMeH-5" value="has" style="edgeLabel;html=1;align=center;verticalAlign=middle;resizable=0;points=[];" parent="NR1aC9e4uaMkveNaqMeH-4" vertex="1" connectable="0">
          <mxGeometry x="-0.3146" relative="1" as="geometry">
            <mxPoint x="-1" as="offset" />
          </mxGeometry>
        </mxCell>
      </root>
    </mxGraphModel>
  </diagram>
</mxfile>
